<?xml version="1.0" encoding="utf-8"?>
<!-- Generator: Adobe Illustrator 16.0.0, SVG Export Plug-In . SVG Version: 6.00 Build 0)  -->
<!DOCTYPE svg PUBLIC "-//W3C//DTD SVG 1.1//EN" "http://www.w3.org/Graphics/SVG/1.1/DTD/svg11.dtd">
<svg version="1.1" id="圖層_1" xmlns="http://www.w3.org/2000/svg" xmlns:xlink="http://www.w3.org/1999/xlink" x="0px" y="0px"
	 width="400px" height="78.226px" viewBox="-596.5 166.133 400 78.226" enable-background="new -596.5 166.133 400 78.226"
	 xml:space="preserve">
<g>
	<g>
		<g>
			<g>
				<g>
					<path fill="#4f4e4d" d="M-554.401,218.915c0,0-0.891,1.184-2.671,3.553s-7.017,3.555-15.708,3.555
						c-8.692,0-14.818-2.369-18.379-7.107c-3.561-4.738-5.341-12.154-5.341-22.249c0-10.094,1.78-17.594,5.341-22.501
						c3.561-4.906,9.687-7.359,18.379-7.359c8.691,0,14.818,2.453,18.379,7.359c3.561,4.907,5.341,12.407,5.341,22.501
						C-549.06,206.761-550.84,214.177-554.401,218.915z M-582.075,211.513c0,0,0.414,0.736,1.241,2.207
						c0.827,1.473,3.512,2.209,8.054,2.209c4.542,0,7.64-1.473,9.294-4.416s2.481-7.88,2.481-14.805
						c0-6.926-0.841-11.958-2.523-15.099s-4.767-4.71-9.252-4.71c-4.486,0-7.57,1.569-9.252,4.71
						c-1.683,3.141-2.523,8.173-2.523,15.099C-584.556,203.633-583.729,208.57-582.075,211.513"/>
					<path fill="#4f4e4d" d="M-506.583,225.012h-32.552v-57.198h11.607v46.937h20.944V225.012z"/>
					<path fill="#4f4e4d" d="M-504.227,225.012l12.869-57.198h22.038l12.87,57.198h-11.608l-2.271-10.345h-20.019l-2.271,10.345
						H-504.227 M-482.358,177.403l-5.804,27.169h15.645l-5.804-27.169H-482.358z"/>
				</g>
				<g>
					<path fill="#4f4e4d" d="M-415.616,225.012h-19.262v-57.198h19.262c4.935,0,9,0.52,12.196,1.557s5.678,2.747,7.444,5.131
						c1.767,2.383,2.985,5.187,3.659,8.411c0.673,3.225,1.01,7.416,1.01,12.575c0,5.159-0.309,9.434-0.926,12.828
						c-0.617,3.393-1.781,6.422-3.49,9.084c-1.711,2.664-4.192,4.599-7.445,5.804S-410.569,225.012-415.616,225.012
						 M-403.42,202.301c0.112-1.795,0.168-4.275,0.168-7.444c0-3.168-0.112-5.706-0.336-7.612c-0.225-1.906-0.757-3.645-1.598-5.215
						s-2.089-2.649-3.743-3.238s-3.883-0.884-6.687-0.884h-7.654v37.011h7.654c4.206,0,7.262-1.064,9.168-3.197
						C-404.822,209.984-403.813,206.845-403.42,202.301z"/>
					<path fill="#4f4e4d" d="M-372.971,208.779c0.057,2.58,0.743,4.445,2.061,5.594c1.318,1.15,3.211,1.725,5.678,1.725
						c5.215,0,9.869-0.168,13.963-0.504l2.355-0.254l0.168,8.328c-6.448,1.57-12.28,2.355-17.495,2.355
						c-6.337,0-10.935-1.684-13.795-5.047c-2.86-3.365-4.29-8.832-4.29-16.403c0-15.084,6.197-22.626,18.59-22.626
						c12.225,0,18.337,6.336,18.337,19.009l-0.842,7.823H-372.971 M-358.503,200.198c0-3.364-0.532-5.705-1.599-7.023
						c-1.064-1.317-2.93-1.977-5.594-1.977c-2.663,0-4.541,0.688-5.635,2.061c-1.094,1.374-1.668,3.688-1.725,6.939H-358.503z"/>
					<path fill="#4f4e4d" d="M-309.128,193.469c-6.954-0.897-11.818-1.346-14.594-1.346c-2.776,0-4.57,0.252-5.384,0.757
						c-0.813,0.505-1.22,1.304-1.22,2.397c0,1.093,0.547,1.85,1.641,2.271c1.094,0.42,3.897,1.038,8.411,1.85
						c4.515,0.814,7.725,2.145,9.631,3.996c1.907,1.85,2.86,4.851,2.86,9.001c0,9.083-5.636,13.626-16.907,13.626
						c-3.701,0-8.187-0.506-13.458-1.514l-2.691-0.506l0.336-9.419c6.954,0.896,11.79,1.346,14.51,1.346s4.57-0.268,5.552-0.799
						c0.981-0.533,1.472-1.332,1.472-2.398c0-1.064-0.519-1.85-1.556-2.355c-1.038-0.504-3.729-1.121-8.075-1.85
						s-7.584-1.963-9.715-3.702c-2.131-1.738-3.196-4.836-3.196-9.294c0-4.458,1.514-7.822,4.542-10.094
						c3.028-2.271,6.925-3.406,11.691-3.406c3.309,0,7.823,0.532,13.543,1.598l2.775,0.505L-309.128,193.469z"/>
					<path fill="#4f4e4d" d="M-299.623,225.012v-42.058h11.271v42.058H-299.623 M-299.623,177.572v-11.439h11.271v11.439H-299.623z"
						/>
					<path fill="#4f4e4d" d="M-239.818,230.27c0,0,0,1.197,0,3.596c0,2.396-1.851,4.744-5.552,7.043
						c-3.701,2.301-8.706,3.449-15.015,3.449s-11.159-0.84-14.552-2.523c-3.393-1.682-5.089-4.738-5.089-9.168
						c0-3.533,2.02-6.869,6.057-10.01c-2.075-1.402-3.112-3.533-3.112-6.392c0-1.121,0.841-2.973,2.523-5.551l0.757-1.178
						c-3.813-2.748-5.72-6.8-5.72-12.156c0-5.355,1.612-9.238,4.837-11.649c3.225-2.412,7.5-3.617,12.827-3.617
						c2.411,0,4.795,0.28,7.149,0.841l1.346,0.253l13.543-0.421v9l-6.309-0.505c1.233,1.907,1.851,3.813,1.851,5.72
						c0,5.608-1.431,9.478-4.29,11.609c-2.86,2.131-7.346,3.197-13.458,3.197c-1.29,0-2.439-0.113-3.449-0.338
						c-0.561,1.459-0.841,2.65-0.841,3.576c0,0.924,0.477,1.555,1.43,1.893c0.953,0.336,3.196,0.531,6.729,0.588
						c7.065,0.057,11.888,0.996,14.468,2.818C-241.108,222.167-239.818,225.475-239.818,230.27 M-268.249,197.044
						c0,0,0,1.031,0,3.091s2.145,3.092,6.435,3.092s6.435-2.061,6.435-6.183c0-4.121-2.145-6.182-6.435-6.182
						S-268.249,192.923-268.249,197.044L-268.249,197.044z M-268.922,231.489c0,2.412,2.958,3.617,8.874,3.617
						s8.874-1.402,8.874-4.205c0-1.516-0.505-2.482-1.514-2.902c-1.01-0.422-3.141-0.66-6.394-0.715l-7.569-0.59
						C-268.165,228.208-268.922,229.807-268.922,231.489"/>
					<path fill="#4f4e4d" d="M-221.734,225.012h-11.271v-42.058h11.187v2.355c3.813-2.243,7.318-3.364,10.515-3.364
						c5.607,0,9.477,1.654,11.607,4.962c2.131,3.309,3.196,8.412,3.196,15.309v22.795h-11.271v-22.459
						c0-3.588-0.42-6.238-1.262-7.948c-0.841-1.711-2.523-2.566-5.047-2.566c-2.299,0-4.514,0.393-6.645,1.178l-1.01,0.337V225.012z
						"/>
				</g>
			</g>
		</g>
	</g>
</g>
</svg>
